<?xml version="1.0" standalone="no"?>
<!DOCTYPE svg PUBLIC "-//W3C//DTD SVG 20010904//EN"
 "http://www.w3.org/TR/2001/REC-SVG-20010904/DTD/svg10.dtd">
<svg version="1.0" xmlns="http://www.w3.org/2000/svg"
 width="1024.000000pt" height="1024.000000pt" viewBox="0 0 1024.000000 1024.000000"
 preserveAspectRatio="xMidYMid meet">
<metadata>
Created by potrace 1.14, written by Peter Selinger 2001-2017
</metadata>
<g transform="translate(0.000000,1024.000000) scale(0.100000,-0.100000)"
fill="#000000" stroke="none">
<path d="M886 9783 c-21 -11 -33 -35 -42 -83 -1 -8 -14 -80 -28 -160 -34 -194
-34 -195 -36 -195 -1 0 -3 -9 -5 -20 -1 -11 -6 -42 -10 -70 -4 -27 -9 -53 -11
-57 -3 -4 -7 -29 -10 -55 -2 -26 -6 -55 -9 -63 -2 -8 -7 -31 -10 -50 -3 -19
-10 -59 -16 -89 -6 -30 -13 -64 -14 -75 -21 -131 -46 -270 -50 -276 -2 -3 -6
-27 -9 -55 -7 -54 -14 -90 -16 -90 -1 0 -3 -13 -5 -30 -2 -16 -7 -46 -11 -65
-4 -19 -7 -45 -7 -57 0 -13 -3 -23 -7 -23 -4 0 -7 -12 -8 -27 -1 -16 -4 -39
-7 -53 -3 -14 -12 -68 -20 -120 -22 -134 -25 -153 -29 -159 -4 -6 -7 -26 -21
-122 -8 -56 4 -83 42 -96 23 -7 244 -10 340 -4 27 1 49 33 57 81 3 19 10 60
16 90 11 57 16 87 25 143 16 95 26 150 40 225 3 15 8 38 10 52 3 14 7 36 9 50
3 14 8 41 10 60 7 43 12 71 34 182 5 26 7 50 4 53 -3 3 65 5 151 5 98 0 157
-4 157 -10 0 -5 -4 -10 -8 -10 -7 0 -46 -83 -47 -100 -1 -3 -6 -27 -13 -55
-12 -51 -18 -83 -28 -145 -3 -19 -10 -60 -15 -90 -6 -30 -12 -64 -13 -75 -4
-23 -22 -124 -32 -175 -13 -63 -11 -144 3 -180 29 -73 100 -119 188 -123 l54
-2 -50 -50 c-86 -85 -116 -166 -154 -410 -8 -55 -17 -101 -21 -106 -6 -10 -6
-141 0 -168 12 -55 37 -126 57 -161 4 -8 20 -37 35 -65 14 -27 46 -78 69 -112
72 -103 76 -98 -78 -97 -162 1 -183 -7 -194 -75 -4 -26 -8 -48 -8 -51 -2 -10
-19 -95 -20 -105 -1 -5 -3 -12 -4 -15 -1 -3 -4 -27 -7 -55 -7 -61 -11 -90 -13
-90 -2 0 -5 -18 -7 -40 -3 -22 -9 -54 -13 -71 -15 -53 -10 -153 10 -206 33
-91 96 -153 188 -189 28 -10 51 -16 51 -13 0 4 6 1 14 -5 7 -6 53 -13 102 -14
180 -6 334 50 433 159 l52 56 -7 -33 c-12 -69 -12 -85 4 -111 9 -16 23 -29 32
-29 8 -1 80 -2 160 -4 103 -1 151 2 166 11 17 10 25 10 40 0 27 -18 326 -15
348 3 13 11 19 11 32 0 24 -19 309 -21 348 -1 23 11 30 12 37 1 10 -16 311
-21 346 -6 12 6 27 23 32 40 l11 30 21 -28 c49 -62 211 -89 302 -51 21 9 43
13 50 9 16 -10 319 -11 333 -1 6 4 24 4 40 0 16 -5 96 -8 178 -7 143 1 149 2
167 24 11 13 19 30 19 39 0 10 10 5 30 -16 41 -43 94 -63 166 -64 65 -1 160
18 170 33 3 5 17 3 32 -4 29 -14 279 -17 318 -4 31 11 48 55 53 137 1 8 9 1
19 -16 56 -100 106 -125 256 -129 114 -2 176 10 176 37 1 37 17 40 61 8 115
-80 351 -84 494 -7 22 12 42 24 45 27 3 3 14 13 26 23 20 17 21 16 21 -13 0
-17 9 -40 21 -53 20 -22 28 -22 179 -22 117 1 164 5 180 15 17 11 26 35 42
124 12 61 23 129 26 151 3 22 7 51 10 65 2 13 7 40 10 60 3 20 8 47 11 60 2
14 7 41 10 60 2 19 7 46 9 60 7 35 16 88 24 137 6 42 7 43 31 30 17 -8 72 -12
171 -12 166 1 194 10 204 67 3 18 7 47 10 63 3 17 12 73 21 125 9 52 17 104
19 115 6 35 15 89 21 118 3 15 8 44 10 65 2 20 10 70 17 109 21 118 8 211 -37
262 -55 61 -190 87 -289 53 -32 -10 -60 -15 -63 -11 -8 13 -309 11 -338 -2
-21 -10 -28 -21 -41 -71 -2 -5 -3 -15 -4 -24 -1 -11 -13 -4 -40 23 -72 73
-172 104 -316 98 -44 -2 -87 -6 -95 -8 -37 -8 -98 -32 -137 -52 l-41 -23 -6
23 c-3 13 -19 29 -36 36 -22 10 -28 19 -25 34 17 69 31 168 29 191 -2 15 -12
37 -23 48 -19 18 -33 20 -155 21 -130 0 -135 1 -131 20 7 31 43 236 49 275 3
19 7 44 10 55 2 11 7 40 11 65 9 56 13 78 20 110 7 34 12 62 19 101 3 19 13
75 21 124 9 50 18 101 20 115 2 14 13 72 24 130 11 58 22 125 26 150 3 25 10
63 15 85 5 22 11 56 15 75 3 19 10 58 15 85 5 28 12 66 14 85 8 48 15 91 21
116 25 113 24 159 -5 184 -21 18 -37 20 -176 20 -90 0 -163 -5 -177 -11 -20
-9 -30 -8 -52 7 -21 14 -48 19 -104 19 -63 0 -86 -5 -133 -28 -31 -15 -70 -44
-87 -63 -17 -19 -31 -30 -31 -23 0 24 -42 68 -84 89 -61 29 -148 35 -226 15
-34 -9 -69 -14 -76 -11 -7 3 -79 6 -158 7 -147 1 -163 5 -146 39 4 8 13 49 20
90 7 41 14 84 17 95 15 66 13 111 -6 135 -19 24 -22 25 -178 25 -118 1 -163
-2 -180 -13 -23 -14 -37 -50 -47 -117 -14 -99 -18 -122 -27 -152 -6 -17 -9
-51 -9 -75 2 -34 -8 -76 -26 -116 0 -1 -21 17 -45 42 -34 34 -56 46 -97 55
-80 17 -124 15 -222 -10 -15 -4 -32 -15 -53 -35 -9 -9 -19 -6 -42 11 -16 13
-47 28 -69 34 -53 14 -156 7 -196 -14 -23 -12 -35 -14 -43 -6 -7 7 -70 11
-173 11 l-163 0 -20 -26 c-12 -15 -21 -32 -21 -39 0 -7 -15 2 -33 20 -36 36
-116 65 -179 65 -43 0 -127 -18 -143 -31 -6 -4 -17 -4 -25 1 -22 14 -304 12
-334 -2 -24 -10 -46 -57 -46 -97 0 -9 -13 -2 -32 19 -37 37 -101 80 -128 85
-10 2 -33 8 -53 13 -35 10 -204 9 -242 -1 -48 -12 -133 -51 -165 -74 -69 -50
-131 -137 -145 -203 -2 -8 -4 -15 -5 -15 -1 0 -3 -18 -6 -39 -2 -22 -8 -42
-13 -46 -5 -3 -65 -5 -133 -5 l-123 1 3 34 c1 19 11 80 21 135 11 55 22 119
26 143 l7 42 164 0 165 0 24 26 c14 15 25 36 26 48 0 12 2 28 4 36 2 8 6 33
10 55 3 22 10 56 15 75 18 71 15 119 -8 142 -22 22 -25 22 -372 23 -261 0
-356 -3 -374 -12z m1622 -1335 c8 -8 59 -12 159 -12 164 -1 154 4 139 -71 -3
-16 -18 -97 -32 -180 -14 -82 -29 -168 -34 -190 -5 -22 -12 -62 -16 -90 -3
-27 -8 -52 -9 -55 -2 -3 -6 -31 -10 -62 -6 -49 -4 -59 14 -77 25 -25 11 -23
186 -26 100 -1 148 2 169 11 23 11 32 11 44 2 20 -17 308 -19 342 -2 19 9 31
9 45 1 27 -15 322 -17 343 -1 11 8 21 8 37 0 15 -8 76 -11 181 -9 184 4 155 4
317 0 70 -1 128 -6 128 -10 1 -4 -2 -29 -7 -55 -4 -26 -8 -56 -10 -67 -3 -31
-15 -98 -19 -115 -2 -8 -7 -31 -10 -50 -11 -70 0 -65 -171 -62 -131 3 -160 0
-181 -13 -22 -15 -26 -15 -42 -1 -14 13 -46 16 -175 16 -153 0 -157 -1 -181
-25 -14 -13 -25 -29 -25 -35 0 -18 -16 -11 -29 13 -22 40 -85 61 -191 61 -85
1 -101 -2 -154 -28 -35 -17 -61 -25 -65 -19 -13 20 -72 44 -123 48 -54 5 -143
-10 -165 -28 -9 -6 -18 -6 -27 2 -10 8 -62 11 -173 9 l-160 -3 9 45 c5 25 10
59 13 75 2 17 4 30 5 30 2 0 9 36 16 90 3 28 8 53 11 58 2 4 -1 23 -7 41 -15
46 -39 53 -183 51 -101 -1 -116 1 -113 15 3 8 7 29 10 45 8 43 14 76 20 105 7
34 27 151 30 175 2 11 6 36 10 55 4 19 9 46 11 60 2 14 6 36 10 50 3 14 7 39
10 55 2 17 9 56 15 88 6 31 8 62 5 67 -3 6 -1 10 5 10 6 0 8 5 5 10 -9 14 8
13 23 -2z m-263 -793 c-4 -16 -9 -47 -11 -69 -5 -43 -23 -85 -24 -53 0 22 -40
85 -74 116 -14 14 -26 27 -26 30 0 4 32 6 71 6 l70 0 -6 -30z m2686 -20 c-3
-58 22 -142 54 -179 14 -16 25 -33 25 -38 0 -4 7 -8 15 -8 8 0 15 -3 15 -8 0
-4 20 -16 45 -27 25 -11 45 -23 45 -27 0 -7 -23 -12 -41 -10 -33 5 -219 -96
-219 -118 0 -6 -4 -10 -9 -10 -5 0 -8 11 -5 25 2 14 9 53 15 88 6 34 13 78 15
97 2 19 6 44 9 56 5 23 16 87 21 119 1 11 3 38 3 59 1 22 4 36 8 32 4 -4 6
-27 4 -51z m682 -211 c-5 -15 -9 -36 -12 -76 -1 -11 -9 -18 -23 -18 -27 0 -68
-37 -68 -62 0 -10 -4 -18 -10 -18 -5 0 -10 3 -10 8 0 11 -87 63 -109 65 -25 2
-16 17 10 17 35 0 142 41 183 70 49 35 47 34 39 14z m-3837 -96 c-6 -45 -22
-136 -31 -178 -3 -14 -8 -45 -11 -69 -5 -47 -10 -59 -20 -48 -10 10 -8 58 5
122 7 33 14 74 16 90 1 17 4 30 5 30 1 0 3 11 4 25 4 39 16 70 28 70 6 0 7
-16 4 -42z m334 -468 c0 -7 -24 -159 -36 -225 -28 -157 -34 -189 -39 -193 -3
-3 -5 1 -5 8 0 7 -16 47 -36 89 -20 42 -35 78 -34 80 1 2 -2 7 -7 10 -5 3 -20
26 -34 51 -13 25 -26 47 -30 50 -3 3 -16 23 -29 45 -13 22 -30 50 -37 62 -13
20 -12 21 22 21 20 0 38 2 40 4 5 5 225 4 225 -2z m-518 -606 c0 -32 -14 -121
-37 -234 -2 -8 -4 -22 -4 -30 -2 -24 -18 -43 -30 -35 -9 5 -9 10 0 21 6 8 9
14 7 14 -3 0 3 44 12 97 10 54 16 101 13 105 -2 5 -1 8 4 8 4 0 9 10 10 23 5
78 7 87 15 79 5 -5 9 -27 10 -48z"/>
<path d="M8235 7723 c-76 -14 -131 -26 -140 -31 -5 -4 -19 -8 -30 -9 -10 -2
-22 -7 -25 -11 -3 -4 -25 -18 -50 -31 -25 -14 -70 -50 -100 -81 -89 -91 -134
-199 -166 -396 -3 -20 -8 -46 -10 -58 -2 -11 -9 -48 -14 -81 -5 -33 -12 -71
-15 -85 -3 -14 -17 -92 -31 -175 -14 -82 -28 -161 -30 -175 -9 -44 -13 -64
-18 -97 -2 -18 -9 -56 -15 -85 -6 -29 -12 -69 -15 -88 -3 -19 -14 -82 -25
-140 -11 -58 -22 -118 -24 -135 -7 -43 -16 -93 -43 -241 -27 -146 -23 -176 25
-192 28 -9 1481 -8 1519 1 60 15 69 18 144 51 67 30 153 102 198 166 13 19 27
37 30 40 12 11 68 143 75 177 14 70 34 185 34 191 -1 4 0 10 1 15 4 12 6 20
14 70 4 27 9 56 11 65 1 10 8 53 15 97 6 44 14 96 17 115 3 19 6 41 6 48 0 6
4 12 9 12 5 0 7 4 4 9 -4 5 -2 31 4 58 10 52 21 116 24 148 1 11 5 38 9 60 4
22 9 56 12 75 2 19 7 46 10 60 4 14 8 34 9 45 8 46 19 122 21 145 2 14 4 25 5
25 1 0 3 16 6 35 4 36 19 126 28 170 3 14 8 39 11 55 3 17 8 56 10 87 4 54 2
58 -25 78 -28 20 -37 20 -742 19 -392 -1 -722 -3 -733 -6z"/>
<path d="M550 4832 c-14 -2 -31 -12 -38 -23 -9 -15 -12 -189 -13 -747 0 -963
-3 -868 21 -892 19 -19 33 -20 305 -20 272 0 286 1 305 20 11 11 20 30 20 42
l0 21 23 -20 c73 -68 196 -93 325 -67 71 15 140 51 170 89 12 15 23 21 27 15
3 -5 4 -14 1 -19 -8 -12 12 -63 27 -73 19 -12 256 -9 279 3 14 8 23 8 31 0 14
-14 251 -15 277 -1 13 7 21 7 25 0 9 -14 251 -13 277 1 14 8 23 8 31 0 7 -7
60 -11 139 -11 115 0 130 2 148 20 11 11 20 25 20 31 0 6 16 -3 35 -19 19 -17
49 -33 67 -37 18 -3 45 -7 59 -9 14 -2 45 0 70 5 24 6 108 9 186 9 84 -1 150
3 162 9 13 7 22 8 26 1 9 -14 251 -13 277 1 14 8 23 8 31 0 7 -7 60 -11 139
-11 160 0 168 5 169 108 1 55 2 62 10 37 13 -45 67 -105 113 -126 31 -14 65
-19 136 -19 52 0 100 4 107 8 6 4 17 20 23 36 10 27 11 28 33 12 137 -101 370
-92 478 19 19 19 36 35 39 35 4 0 4 -15 2 -34 -3 -25 2 -40 17 -55 19 -19 32
-21 149 -21 181 0 167 -25 167 311 0 173 4 269 10 269 6 0 3 5 -5 10 -10 7 28
10 118 10 104 0 132 -3 126 -12 -5 -9 -2 -9 9 1 9 7 17 10 17 5 1 -5 1 -132 2
-283 1 -253 2 -275 19 -292 17 -17 35 -19 147 -19 79 0 132 4 139 11 8 8 17 8
31 0 23 -12 260 -15 278 -3 18 12 31 45 29 75 -1 15 0 27 2 27 2 0 19 -16 38
-35 46 -45 82 -63 162 -80 139 -29 288 12 351 97 20 27 28 22 24 -16 -3 -25 2
-40 17 -55 19 -19 32 -21 149 -21 79 0 132 4 139 11 8 8 17 8 31 0 27 -15 264
-15 279 0 8 8 17 8 31 0 27 -15 264 -15 279 0 8 8 17 8 31 0 29 -15 264 -15
280 1 9 9 15 9 24 0 8 -8 53 -12 138 -12 152 0 162 5 170 81 l5 54 18 -30 c45
-73 150 -118 277 -117 108 0 184 27 246 87 l45 42 -3 -38 c-1 -26 4 -45 17
-59 16 -18 30 -20 147 -20 183 0 168 -28 168 326 0 205 3 283 11 278 6 -3 68
-6 137 -5 109 1 129 4 145 20 17 17 19 38 18 287 0 364 -12 415 -103 462 -50
26 -139 33 -188 15 -14 -5 -89 -8 -167 -7 -170 3 -186 -3 -185 -77 1 -34 -2
-40 -9 -27 -5 10 -31 34 -56 53 -151 115 -435 77 -510 -68 l-15 -31 -18 48
c-10 26 -24 54 -32 63 -44 54 -197 72 -283 34 -46 -20 -46 -20 -83 -1 -44 24
-153 27 -192 6 -15 -9 -31 -11 -40 -6 -23 12 -230 11 -263 -2 -28 -11 -45 -47
-31 -70 4 -7 -10 6 -30 29 -50 58 -129 78 -226 60 l-35 -7 0 135 c0 175 6 168
-161 170 -181 2 -171 15 -170 -224 1 -105 -1 -191 -4 -191 -3 0 -20 16 -38 34
-59 61 -134 87 -252 88 -130 0 -219 -42 -282 -132 -15 -22 -17 -22 -17 -6 -2
53 -59 111 -129 131 -40 12 -131 7 -162 -8 -16 -9 -32 -11 -35 -7 -7 11 -242
10 -272 -1 -12 -5 -25 -19 -28 -32 l-6 -23 -34 32 c-45 42 -157 61 -225 37
-14 -5 -89 -8 -168 -7 -135 2 -144 1 -163 -19 -15 -16 -20 -32 -17 -59 l3 -37
-38 39 c-66 66 -143 92 -269 91 -78 -1 -160 -26 -213 -66 -19 -15 -33 -21 -30
-13 7 17 -31 68 -51 68 -16 0 -16 -1 -15 103 0 68 -3 82 -22 101 -20 20 -31
22 -137 20 -63 -1 -123 -2 -133 -3 -28 -2 -43 -53 -42 -141 1 -72 -1 -81 -20
-86 -11 -4 -23 -12 -27 -18 -5 -7 -16 -5 -38 7 -16 10 -40 20 -53 23 -37 7
-120 6 -152 -4 -16 -5 -92 -7 -169 -5 -94 2 -143 0 -152 -8 -10 -8 -18 -8 -26
-1 -17 13 -245 13 -275 -1 -16 -7 -26 -7 -35 1 -8 6 -64 10 -138 10 -124 0
-124 0 -151 -29 -22 -23 -28 -26 -33 -13 -16 41 -159 69 -241 47 -16 -5 -93
-8 -170 -7 -116 2 -143 0 -157 -13 -10 -9 -18 -23 -18 -30 0 -10 -9 -7 -30 11
-48 40 -142 57 -234 44 -18 -3 -19 4 -18 124 1 176 5 173 -167 173 -110 0
-133 -3 -148 -18 -15 -15 -17 -41 -18 -207 0 -104 -1 -190 -2 -190 -1 0 -19
16 -40 36 -51 50 -112 75 -197 83 -133 12 -229 -16 -303 -90 -48 -47 -67 -104
-68 -204 0 -38 -4 -73 -10 -77 -7 -5 -7 -11 0 -15 13 -10 15 -63 3 -63 -5 0
-6 -5 -3 -11 12 -18 13 -59 2 -52 -6 4 -7 1 -1 -8 12 -21 13 -59 0 -59 -7 0
-7 -3 -1 -8 6 -4 10 -22 10 -40 0 -24 -3 -31 -15 -27 -12 4 -12 3 1 -7 21 -17
24 -29 7 -39 -8 -6 -9 -9 -1 -9 12 0 12 -17 0 -36 -3 -6 -3 -14 1 -18 10 -11
9 -86 -2 -86 -5 0 -2 -8 5 -17 12 -14 12 -16 0 -8 -11 6 -12 5 -5 -6 11 -18
12 -89 1 -82 -5 3 -5 -3 0 -13 8 -17 9 -29 4 -76 -1 -10 -30 -13 -111 -13 -60
0 -110 2 -111 5 0 3 -2 16 -5 29 -2 14 1 28 8 33 7 4 9 8 3 8 -14 0 -15 433
-1 442 8 6 8 8 0 8 -14 0 -13 170 1 170 5 0 3 5 -5 10 -13 8 -13 13 -2 31 8
11 9 18 4 15 -6 -3 -9 106 -10 285 0 251 -2 293 -16 307 -12 12 -41 16 -138
16 -68 1 -134 0 -148 -2z"/>
<path d="M875 3940 c3 -5 8 -10 11 -10 2 0 4 5 4 10 0 6 -5 10 -11 10 -5 0 -7
-4 -4 -10z"/>
<path d="M435 3651 c-3 -5 -2 -12 3 -15 5 -3 9 1 9 9 0 17 -3 19 -12 6z"/>
<path d="M2170 2197 c-33 -8 -44 -37 -54 -147 -4 -36 -11 -103 -17 -150 -5
-47 -12 -103 -15 -125 -9 -84 -15 -131 -19 -165 -3 -19 -8 -64 -11 -100 -4
-36 -12 -71 -18 -79 -8 -11 -8 -13 0 -8 10 6 8 -24 -4 -75 -1 -5 -2 -26 -2
-49 0 -22 -3 -38 -7 -36 -5 3 -9 -31 -10 -75 -1 -48 -7 -85 -15 -95 -10 -13
-10 -17 -1 -20 8 -3 10 -11 5 -21 -4 -9 -7 -29 -6 -44 0 -16 -2 -28 -5 -28 -4
0 -5 -17 -3 -37 4 -35 4 -37 -13 -23 -18 14 -18 14 -2 -11 10 -14 15 -28 13
-30 -5 -5 -13 -70 -32 -259 -9 -96 1 -103 153 -102 65 0 125 1 133 1 22 1 38
33 45 88 3 26 8 57 10 68 2 11 7 51 10 90 4 38 10 72 13 75 4 3 7 21 7 40 -1
49 4 60 26 57 27 -5 31 -12 35 -64 2 -26 6 -66 9 -88 3 -22 10 -83 16 -135 15
-141 -5 -132 306 -133 142 0 270 3 286 6 15 4 37 3 49 -4 30 -16 106 -20 153
-8 22 6 57 24 78 40 24 20 37 25 37 16 0 -8 9 -22 20 -32 17 -15 38 -18 132
-18 134 -1 164 6 174 36 5 12 9 141 10 287 1 146 2 267 3 271 2 8 204 5 217
-3 6 -4 14 -4 18 -1 4 4 13 8 21 9 13 2 15 -25 14 -177 0 -98 3 -195 7 -216
10 -58 39 -107 85 -147 61 -52 125 -71 241 -70 88 0 102 3 161 32 61 30 116
82 129 122 3 11 10 6 21 -16 24 -46 92 -101 150 -120 65 -22 182 -26 246 -9
63 16 133 56 160 91 l21 27 0 -36 c0 -19 8 -45 18 -57 16 -20 27 -22 132 -24
63 0 129 4 146 10 22 7 36 8 43 1 5 -5 63 -9 133 -8 164 2 164 2 312 0 97 -1
130 1 136 11 7 11 11 11 24 1 19 -16 226 -21 269 -8 16 5 33 20 38 34 l9 25
20 -25 c37 -46 152 -67 234 -43 23 7 52 10 66 7 14 -4 75 -5 135 -3 124 4 115
4 289 1 96 -1 130 2 136 12 7 10 11 10 24 -1 12 -9 53 -13 146 -13 126 0 130
0 131 -21 4 -121 102 -229 229 -251 140 -25 268 6 344 84 65 66 72 102 71 376
-1 204 2 242 15 253 8 8 10 11 3 8 -6 -4 -14 -2 -18 4 -3 5 -1 10 5 10 6 0 8
5 4 12 -11 17 -12 88 -2 94 5 3 5 11 1 17 -11 17 -11 67 0 67 5 0 4 6 -2 14
-8 10 -9 16 -1 21 6 3 7 12 3 18 -11 18 -12 37 -2 37 6 0 5 8 -1 20 -8 15 -8
20 2 20 8 0 9 3 3 8 -12 8 -14 181 -2 199 4 6 3 15 -3 18 -8 5 -7 11 1 21 6 8
7 14 3 14 -5 0 -9 66 -9 146 1 195 7 188 -156 189 -68 1 -131 -2 -141 -7 -10
-4 -33 -2 -58 7 -89 32 -178 10 -238 -59 -31 -35 -52 -40 -52 -12 0 15 -35 48
-68 65 -39 21 -152 25 -192 9 -20 -8 -44 -12 -55 -8 -11 3 -74 5 -140 3 -66
-1 -127 -3 -135 -3 -8 0 -70 1 -138 3 -78 2 -131 -1 -145 -8 -16 -8 -28 -8
-44 0 -13 7 -72 11 -144 10 -117 -1 -123 -2 -144 -27 l-21 -25 -27 23 c-50 43
-165 58 -232 30 -18 -8 -36 -12 -39 -8 -10 10 -249 10 -269 0 -10 -5 -23 -20
-29 -34 -11 -24 -11 -24 -25 -4 -28 40 -73 55 -168 54 l-90 0 0 121 c1 66 -3
130 -9 143 -13 30 -40 36 -175 35 -158 -1 -151 10 -151 -235 l0 -190 -26 31
c-58 69 -177 109 -297 98 -66 -5 -147 -27 -147 -39 0 -5 -6 -8 -14 -8 -16 0
-83 -68 -103 -103 -9 -15 -12 -17 -13 -6 0 26 -65 93 -111 117 -68 34 -133 45
-219 39 -117 -8 -193 -47 -254 -131 -13 -19 -14 -18 -21 13 -4 18 -22 47 -41
66 -53 54 -143 69 -237 41 -25 -7 -49 -11 -52 -8 -3 3 -58 7 -123 8 -124 1
-155 -7 -167 -46 -6 -20 -6 -20 -28 1 -52 49 -147 71 -219 51 l-36 -10 2 122
c1 66 -2 133 -7 149 -12 35 -35 41 -176 40 -160 0 -151 17 -152 -277 0 -127 0
-287 1 -354 1 -88 -3 -128 -12 -140 -7 -9 -8 -13 -2 -9 9 5 12 -20 12 -89 1
-53 -1 -94 -3 -92 -4 4 -14 88 -19 163 -1 23 -6 46 -10 53 -4 7 -2 12 3 12 6
0 11 5 11 11 0 5 -4 8 -8 5 -8 -5 -13 32 -16 121 0 24 -4 43 -7 43 -3 0 -6 6
-6 13 -1 16 -13 125 -18 157 -2 14 -7 54 -10 90 -4 36 -8 76 -10 90 -2 14 -6
54 -10 90 -8 79 -26 110 -63 111 -150 4 -348 2 -372 -4z m2748 -879 c7 -7 12
-8 12 -2 0 12 29 12 49 -1 8 -5 12 -4 8 1 -4 8 56 11 73 4 6 -3 9 -2 44 4 16
3 26 0 26 -7 0 -7 4 -6 10 3 7 10 10 -17 10 -86 l0 -101 -122 2 c-68 1 -130
-2 -139 -6 -12 -6 -16 -3 -15 14 1 12 6 28 10 36 6 9 5 12 0 8 -13 -8 -12 106
1 115 6 5 5 8 -3 8 -7 0 -10 5 -7 10 8 14 28 13 43 -2z m2720 -593 c-3 -3 -9
2 -12 12 -6 14 -5 15 5 6 7 -7 10 -15 7 -18z"/>
</g>
</svg>
